<?xml version="1.0" standalone="yes"?>
<svg xmlns="http://www.w3.org/2000/svg" width="120" height="120">
<path style="fill:#01010100; stroke:none;" d="M0 0L0 120L120 120L120 0L0 0z"/>
<path style="fill:#ffffff; stroke:none;" d="M41 33L40 34C41.9834 44.6898 39.2012 56.2177 34.6906 66C32.7766 70.1509 26.3957 77.2053 28.3117 81.9452C30.752 87.9822 39.5199 87.1857 44.7145 86.821C57.3527 85.9337 71.0278 80.3056 83 76.3333C87.5688 74.8174 93.2202 74.1944 96 70C84.5841 66.8823 87.42 38.1028 84 28C73.9721 32.6487 66.5648 42.9725 54 39.3619C49.3358 38.0216 45.5155 34.709 41 33z"/>
<path style="fill:#01010100; stroke:none;" d="M44 39C43.2993 47.8794 41.9089 56.701 38.5471 65C36.7894 69.339 31.6997 75.1934 31.7361 79.8912C31.7739 84.7706 40.6333 84.79 43.7755 83.3966C47.4291 81.7764 48.3969 76.5029 49 73L52 74L49 83L88 71L83 34C73.1633 37.2561 66.2921 44.5042 55 42.787C51.1624 42.2034 47.7137 40.0694 44 39z"/>
</svg>
